<svg width="513" height="513" viewBox="0 0 513 513" fill="none" xmlns="http://www.w3.org/2000/svg">
<path d="M176.098 432.923C184.934 432.923 192.098 425.76 192.098 416.923C192.098 408.087 184.934 400.923 176.098 400.923C167.261 400.923 160.098 408.087 160.098 416.923C160.098 425.76 167.261 432.923 176.098 432.923Z" stroke="white" stroke-width="32" stroke-linecap="round" stroke-linejoin="round"/>
<path d="M400.098 432.923C408.934 432.923 416.098 425.76 416.098 416.923C416.098 408.087 408.934 400.923 400.098 400.923C391.261 400.923 384.098 408.087 384.098 416.923C384.098 425.76 391.261 432.923 400.098 432.923Z" stroke="white" stroke-width="32" stroke-linecap="round" stroke-linejoin="round"/>
<path d="M48.0977 80.9234H112.098L160.098 352.923H416.098" stroke="white" stroke-width="32" stroke-linecap="round" stroke-linejoin="round"/>
<path d="M160.098 288.923H409.538C411.388 288.925 413.181 288.285 414.613 287.112C416.044 285.94 417.025 284.308 417.388 282.493L446.188 138.493C446.42 137.332 446.392 136.134 446.105 134.985C445.818 133.836 445.28 132.765 444.529 131.85C443.778 130.934 442.833 130.197 441.762 129.691C440.691 129.185 439.522 128.923 438.338 128.923H128.098" stroke="white" stroke-width="32" stroke-linecap="round" stroke-linejoin="round"/>
</svg>
